<svg width="291" height="75" viewBox="0 0 291 75" fill="none" xmlns="http://www.w3.org/2000/svg">
<mask id="mask0_458_2920" style="mask-type:luminance" maskUnits="userSpaceOnUse" x="2" y="0" width="41" height="41">
<path d="M2.0498 0H42.833V40.7832H2.0498V0Z" fill="white"/>
</mask>
<g mask="url(#mask0_458_2920)">
<path d="M35.4465 7.40255C31.9045 3.7756 27.6297 1.95947 22.622 1.95947C17.6303 1.95947 13.3343 3.7756 9.73918 7.40255C6.10692 11.0295 4.26423 15.3627 4.20582 20.3916C4.15272 25.4895 5.89981 29.8386 9.44711 33.4443C12.9254 37.0341 17.1789 38.8237 22.2131 38.8237C27.2208 38.8237 31.5327 37.0341 35.1544 33.4443C38.776 29.8386 40.6187 25.4895 40.6718 20.3916C40.7302 15.3202 38.9884 10.9923 35.4465 7.40255Z" stroke="black" stroke-width="3.89043" stroke-miterlimit="3" stroke-linecap="round" stroke-linejoin="round"/>
</g>
<path d="M32.7063 10.1003C29.9397 7.2115 26.5676 5.76709 22.5796 5.76709C18.6234 5.76709 15.2301 7.2115 12.3944 10.1003C9.53209 12.9254 8.08237 16.3559 8.03458 20.3917C7.9921 24.4382 9.36747 27.8739 12.166 30.699C14.938 33.5825 18.2994 35.0216 22.2556 35.0216C26.2384 35.0216 29.6476 33.5825 32.478 30.699C35.335 27.8739 36.7847 24.4382 36.8325 20.3917C36.875 16.3559 35.4996 12.9254 32.7063 10.1003Z" stroke="black" stroke-width="3.89043" stroke-miterlimit="3" stroke-linecap="round" stroke-linejoin="round"/>
<mask id="mask1_458_2920" style="mask-type:luminance" maskUnits="userSpaceOnUse" x="0" y="0" width="10" height="61">
<path d="M0 0H9.44173V60.6597H0V0Z" fill="white"/>
</mask>
<g mask="url(#mask1_458_2920)">
<mask id="mask2_458_2920" style="mask-type:luminance" maskUnits="userSpaceOnUse" x="-2" y="-1" width="12" height="62">
<path d="M9.5953 -0.306641H-1.28021V60.8681H9.5953V-0.306641Z" fill="white"/>
</mask>
<g mask="url(#mask2_458_2920)">
<mask id="mask3_458_2920" style="mask-type:luminance" maskUnits="userSpaceOnUse" x="-1" y="0" width="11" height="61">
<path d="M-0.000305176 0.00439453H9.44143V60.6641H-0.000305176V0.00439453Z" fill="white"/>
</mask>
<g mask="url(#mask3_458_2920)">
<path d="M9.44143 0.00439453V60.6588H-0.000305176V0.00439453H9.44143Z" fill="black"/>
</g>
</g>
</g>
<mask id="mask4_458_2920" style="mask-type:luminance" maskUnits="userSpaceOnUse" x="12" y="10" width="21" height="21">
<path d="M12.3144 10.019H32.621V30.331H12.3144V10.019Z" fill="white"/>
</mask>
<g mask="url(#mask4_458_2920)">
<mask id="mask5_458_2920" style="mask-type:luminance" maskUnits="userSpaceOnUse" x="12" y="10" width="21" height="21">
<path d="M22.4675 10.0171C16.8598 10.0171 12.3142 14.5627 12.3142 20.1704C12.3142 25.7781 16.8598 30.329 22.4675 30.329C28.0752 30.329 32.6208 25.7781 32.6208 20.1704C32.6208 14.5627 28.0752 10.0171 22.4675 10.0171Z" fill="white"/>
</mask>
<g mask="url(#mask5_458_2920)">
<mask id="mask6_458_2920" style="mask-type:luminance" maskUnits="userSpaceOnUse" x="12" y="9" width="21" height="22">
<path d="M32.7056 9.20312H12.314V30.9542H32.7056V9.20312Z" fill="white"/>
</mask>
<g mask="url(#mask6_458_2920)">
<mask id="mask7_458_2920" style="mask-type:luminance" maskUnits="userSpaceOnUse" x="12" y="10" width="21" height="21">
<path d="M12.3138 10.0181H32.6204V30.33H12.3138V10.0181Z" fill="white"/>
</mask>
<g mask="url(#mask7_458_2920)">
<mask id="mask8_458_2920" style="mask-type:luminance" maskUnits="userSpaceOnUse" x="12" y="10" width="21" height="21">
<path d="M22.4669 10.0166C16.8592 10.0166 12.3136 14.5622 12.3136 20.1699C12.3136 25.7776 16.8592 30.3285 22.4669 30.3285C28.0746 30.3285 32.6202 25.7776 32.6202 20.1699C32.6202 14.5622 28.0746 10.0166 22.4669 10.0166Z" fill="white"/>
</mask>
<g mask="url(#mask8_458_2920)">
<path d="M12.3136 10.0166H32.6202V30.3285H12.3136V10.0166Z" fill="black"/>
</g>
</g>
</g>
</g>
</g>
<mask id="mask9_458_2920" style="mask-type:luminance" maskUnits="userSpaceOnUse" x="15" y="13" width="14" height="14">
<path d="M15.7614 13.6948H28.6283V26.875H15.7614V13.6948Z" fill="white"/>
</mask>
<g mask="url(#mask9_458_2920)">
<path d="M22.4256 26.6004C21.8149 26.6004 21.2202 26.5102 20.636 26.3349C20.0519 26.1544 19.505 25.8995 19.0005 25.5596C18.4907 25.2198 18.0446 24.8162 17.657 24.3436C17.2693 23.8709 16.9613 23.3558 16.7277 22.7876C16.494 22.2247 16.3453 21.6406 16.2869 21.0352C16.2285 20.4245 16.255 19.8245 16.3772 19.2244C16.494 18.6297 16.6958 18.0615 16.9879 17.5198C17.2746 16.9835 17.6304 16.5002 18.0659 16.0648C18.3526 15.7833 18.6659 15.5337 19.0005 15.3107C19.335 15.093 19.6908 14.9071 20.0625 14.7531C20.4396 14.6044 20.8219 14.4929 21.2149 14.4133C21.6131 14.3389 22.0114 14.3018 22.415 14.3018C22.8186 14.3071 23.2169 14.3442 23.6098 14.4239C24.0028 14.5035 24.3851 14.6257 24.7568 14.7797C25.1286 14.9337 25.4844 15.1249 25.8189 15.3479C26.1535 15.5709 26.4615 15.8258 26.7429 16.1073C27.0297 16.394 27.2846 16.702 27.5076 17.0366C27.7306 17.3711 27.9218 17.7269 28.0758 18.0986C28.2298 18.4704 28.3519 18.8527 28.4316 19.2457C28.5112 19.6386 28.5537 20.0369 28.5537 20.4405C28.5537 20.8441 28.5166 21.2423 28.4422 21.6353C28.3679 22.0336 28.251 22.4159 28.1023 22.7876C27.9537 23.1647 27.7678 23.5151 27.5448 23.855C27.3217 24.1896 27.0721 24.5029 26.7907 24.7896C25.5906 26.0004 24.1355 26.6057 22.4256 26.6004ZM22.4256 15.4753C19.6961 15.4753 17.4711 17.695 17.4711 20.4299C17.4711 23.1594 19.6961 25.3844 22.4256 25.3844C25.1604 25.3844 27.3855 23.1594 27.3855 20.4299C27.3855 17.695 25.1604 15.4753 22.4256 15.4753Z" fill="white"/>
</g>
<mask id="mask10_458_2920" style="mask-type:luminance" maskUnits="userSpaceOnUse" x="27" y="13" width="3" height="3">
<path d="M27.0348 13.6948H29.0739V15.734H27.0348V13.6948Z" fill="white"/>
</mask>
<g mask="url(#mask10_458_2920)">
<path d="M28.1022 13.6948C27.5127 13.6948 27.0348 14.1728 27.0348 14.7622C27.0348 15.3516 27.5127 15.8296 28.1022 15.8296C28.6916 15.8296 29.1695 15.3516 29.1695 14.7622C29.1695 14.1728 28.6916 13.6948 28.1022 13.6948Z" fill="white"/>
</g>
<mask id="mask11_458_2920" style="mask-type:luminance" maskUnits="userSpaceOnUse" x="40" y="6" width="251" height="69">
<path d="M291 6.47949H40.863V74.4515H291V6.47949Z" fill="white"/>
</mask>
<g mask="url(#mask11_458_2920)">
<path d="M55.9507 26.381C56.7685 24.6551 58.1439 23.2797 60.0715 22.2602C61.9939 21.2406 64.1127 20.7308 66.4226 20.7308C70.1877 20.7308 73.2252 21.8247 75.5351 24.0019C77.8557 26.1845 79.0187 29.0361 79.0187 32.5622V57.8817H69.4814V35.2173C69.4814 30.916 67.421 28.76 63.3002 28.76C61.0752 28.76 59.2697 29.4928 57.8837 30.9478C56.5083 32.3922 55.8233 34.3623 55.8233 36.8529V57.8817H46.2859V9.02686H55.8233V26.381H55.9507Z" fill="black"/>
<path d="M122.752 39.78C122.752 43.6777 121.977 47.0551 120.437 49.912C118.907 52.7743 116.73 54.9781 113.915 56.5181C111.096 58.058 107.872 58.8334 104.251 58.8334C100.624 58.8334 97.4004 58.058 94.5859 56.5181C91.7821 54.9781 89.6049 52.7743 88.0649 49.912C86.5196 47.0551 85.7496 43.6777 85.7496 39.78C85.7496 35.8875 86.5249 32.5048 88.0861 29.6266C89.658 26.7378 91.8458 24.5394 94.6497 23.0206C97.4641 21.4912 100.666 20.7266 104.251 20.7266C107.872 20.7266 111.096 21.5019 113.915 23.0419C116.73 24.5872 118.907 26.7909 120.437 29.6479C121.977 32.5101 122.752 35.8875 122.752 39.78ZM104.251 50.8042C107.15 50.8042 109.327 49.843 110.772 47.9154C112.227 45.993 112.96 43.2795 112.96 39.78C112.96 36.2858 112.221 33.5722 110.751 31.6446C109.274 29.7222 107.086 28.7558 104.187 28.7558C101.426 28.7558 99.2909 29.7116 97.7934 31.6233C96.2905 33.5244 95.5418 36.2433 95.5418 39.78C95.5418 43.3644 96.2746 46.0992 97.7509 47.9791C99.2218 49.8642 101.388 50.8042 104.251 50.8042Z" fill="black"/>
<path d="M146.03 21.6853V28.4825H140.104V48.7041C140.104 49.6547 140.364 50.2919 140.89 50.6159C141.41 50.9292 142.445 51.0832 143.991 51.0832C144.341 51.0832 145.021 51.0354 146.03 50.9345V58.1565C143.481 58.2415 141.782 58.2839 140.932 58.2839C138.027 58.2839 135.824 57.9759 134.326 57.3706C132.823 56.7652 131.825 55.9049 131.331 54.8004C130.832 53.6852 130.588 52.2196 130.588 50.4034V28.4825H125.681V21.6853H130.588V11.8931H140.104V21.6853H146.03Z" fill="black"/>
<path d="M186.973 39.78C186.973 43.6777 186.198 47.0551 184.658 49.912C183.128 52.7743 180.951 54.9781 178.137 56.5181C175.317 58.058 172.093 58.8334 168.472 58.8334C164.845 58.8334 161.621 58.058 158.807 56.5181C156.003 54.9781 153.826 52.7743 152.286 49.912C150.741 47.0551 149.971 43.6777 149.971 39.78C149.971 35.8875 150.746 32.5048 152.307 29.6266C153.879 26.7378 156.067 24.5394 158.871 23.0206C161.685 21.4912 164.887 20.7266 168.472 20.7266C172.093 20.7266 175.317 21.5019 178.137 23.0419C180.951 24.5872 183.128 26.7909 184.658 29.6479C186.198 32.5101 186.973 35.8875 186.973 39.78ZM168.472 50.8042C171.371 50.8042 173.548 49.843 174.993 47.9154C176.448 45.993 177.181 43.2795 177.181 39.78C177.181 36.2858 176.443 33.5722 174.972 31.6446C173.495 29.7222 171.307 28.7558 168.408 28.7558C165.647 28.7558 163.512 29.7116 162.014 31.6233C160.512 33.5244 159.763 36.2433 159.763 39.78C159.763 43.3644 160.496 46.0992 161.972 47.9791C163.443 49.8642 165.61 50.8042 168.472 50.8042Z" fill="black"/>
<path d="M228.54 39.3764C228.54 43.1467 227.934 46.5028 226.734 49.4447C225.544 52.392 223.803 54.6913 221.509 56.3481C219.215 58.0049 216.48 58.8334 213.31 58.8334C208.551 58.8334 205.142 56.9748 203.092 53.2469H202.965V71.9604H193.449V21.6824H202.561V26.929H202.689C205.094 22.7976 208.7 20.7266 213.501 20.7266C216.4 20.7266 219.002 21.4912 221.296 23.0206C223.59 24.5394 225.364 26.706 226.628 29.5204C227.902 32.3243 228.54 35.6114 228.54 39.3764ZM210.931 50.9953C213.421 50.9953 215.349 49.9492 216.708 47.8516C218.068 45.7434 218.747 43.1255 218.747 39.9924C218.747 36.5407 218.052 33.843 216.666 31.8995C215.29 29.9453 213.267 28.9682 210.591 28.9682C207.999 28.9682 206.008 29.9559 204.622 31.9207C203.246 33.8908 202.561 36.7796 202.561 40.5871C202.561 43.8583 203.305 46.4178 204.792 48.2552C206.289 50.082 208.339 50.9953 210.931 50.9953Z" fill="black"/>
<path d="M235.483 17.391V8.55469H244.999V17.391H235.483ZM235.483 57.8769V21.6818H244.999V57.8769H235.483Z" fill="black"/>
<path d="M285.557 56.4543V57.8775H275.276C274.734 56.295 274.448 54.8612 274.405 53.5868C272.674 55.456 270.879 56.8048 269.01 57.6226C267.151 58.4298 265.048 58.8334 262.701 58.8334C259.388 58.8334 256.716 57.8828 254.693 55.987C252.681 54.0753 251.677 51.5051 251.677 48.2765C251.677 45.2496 252.505 42.7272 254.162 40.7146C255.819 38.6913 258.777 37.3107 263.041 36.5725L269.838 35.5529C271.564 35.2874 272.711 34.9529 273.279 34.5546C273.842 34.1457 274.129 33.4607 274.129 32.4942C274.129 31.1348 273.64 30.1099 272.663 29.4142C271.686 28.708 270.082 28.3522 267.863 28.3522C264.278 28.3522 262.329 30.0302 262.021 33.3863H252.824C253.19 29.2549 254.587 26.1112 257.008 23.9552C259.441 21.8046 263.36 20.7266 268.755 20.7266C273.385 20.7266 276.986 21.6346 279.567 23.4454C282.158 25.2616 283.454 27.7574 283.454 30.9436V51.144C283.454 52.8168 283.624 54.0541 283.964 54.8612C284.303 55.6578 284.835 56.1888 285.557 56.4543ZM274.129 44.7504V40.2473C273.306 40.7571 272.419 41.1606 271.474 41.458C270.523 41.7448 269.143 42.0262 267.332 42.3077C265.277 42.5785 263.742 43.1308 262.722 43.9645C261.703 44.8035 261.193 46.0408 261.193 47.6817C261.193 48.988 261.602 50.0395 262.425 50.8466C263.243 51.6432 264.315 52.0362 265.632 52.0362C267.034 52.0362 268.394 51.7335 269.711 51.1228C271.028 50.5015 272.09 49.6359 272.897 48.5313C273.715 47.4162 274.129 46.1523 274.129 44.7504Z" fill="black"/>
</g>
</svg>
