<svg width="405" height="105" viewBox="0 0 405 105" fill="none" xmlns="http://www.w3.org/2000/svg">
<mask id="mask0_1686_292" style="mask-type:luminance" maskUnits="userSpaceOnUse" x="2" y="5" width="56" height="55">
<path d="M2.73117 5.63324H57.0695V59.9715H2.73117V5.63324Z" fill="white"/>
</mask>
<g mask="url(#mask0_1686_292)">
<path d="M47.2277 15.4962C42.5084 10.6638 36.8128 8.24402 30.1408 8.24402C23.49 8.24402 17.766 10.6638 12.9761 15.4962C8.13654 20.3286 5.6814 26.1021 5.60357 32.8024C5.53282 39.5947 7.8606 45.3894 12.5869 50.1935C17.2212 54.9764 22.8886 57.3608 29.596 57.3608C36.268 57.3608 42.0131 54.9764 46.8385 50.1935C51.6639 45.3894 54.119 39.5947 54.1898 32.8024C54.2676 26.0455 51.9469 20.2791 47.2277 15.4962Z" stroke="black" stroke-width="5.18349" stroke-miterlimit="3" stroke-linecap="round" stroke-linejoin="round"/>
</g>
<path d="M43.577 19.0905C39.8908 15.2415 35.398 13.317 30.0844 13.317C24.8133 13.317 20.2922 15.2415 16.514 19.0905C12.7004 22.8545 10.7688 27.4252 10.7051 32.8024C10.6485 38.1938 12.481 42.7715 16.2097 46.5356C19.903 50.3775 24.3817 52.2949 29.6528 52.2949C34.9593 52.2949 39.5017 50.3775 43.2728 46.5356C47.0793 42.7715 49.0109 38.1938 49.0746 32.8024C49.1312 27.4252 47.2987 22.8545 43.577 19.0905Z" stroke="black" stroke-width="5.18349" stroke-miterlimit="3" stroke-linecap="round" stroke-linejoin="round"/>
<mask id="mask1_1686_292" style="mask-type:luminance" maskUnits="userSpaceOnUse" x="0" y="5" width="13" height="82">
<path d="M0 5.63324H12.5799V86.4544H0V5.63324Z" fill="white"/>
</mask>
<g mask="url(#mask1_1686_292)">
<mask id="mask2_1686_292" style="mask-type:luminance" maskUnits="userSpaceOnUse" x="-2" y="5" width="15" height="82">
<path d="M12.785 5.21576H-1.7052V86.7232H12.785V5.21576Z" fill="white"/>
</mask>
<g mask="url(#mask2_1686_292)">
<mask id="mask3_1686_292" style="mask-type:luminance" maskUnits="userSpaceOnUse" x="0" y="5" width="13" height="82">
<path d="M0 5.63324H12.5799V86.4544H0V5.63324Z" fill="white"/>
</mask>
<g mask="url(#mask3_1686_292)">
<path d="M12.5799 5.63324V86.4473H0V5.63324H12.5799Z" fill="black"/>
</g>
</g>
</g>
<mask id="mask4_1686_292" style="mask-type:luminance" maskUnits="userSpaceOnUse" x="16" y="18" width="28" height="29">
<path d="M16.4076 18.9843H43.4636V46.0473H16.4076V18.9843Z" fill="white"/>
</mask>
<g mask="url(#mask4_1686_292)">
<mask id="mask5_1686_292" style="mask-type:luminance" maskUnits="userSpaceOnUse" x="16" y="18" width="28" height="29">
<path d="M29.9356 18.9843C22.4641 18.9843 16.4076 25.0408 16.4076 32.5123C16.4076 39.9838 22.4641 46.0473 29.9356 46.0473C37.4071 46.0473 43.4636 39.9838 43.4636 32.5123C43.4636 25.0408 37.4071 18.9843 29.9356 18.9843Z" fill="white"/>
</mask>
<g mask="url(#mask5_1686_292)">
<mask id="mask6_1686_292" style="mask-type:luminance" maskUnits="userSpaceOnUse" x="16" y="17" width="28" height="30">
<path d="M43.5768 17.8948H16.4077V46.8752H43.5768V17.8948Z" fill="white"/>
</mask>
<g mask="url(#mask6_1686_292)">
<mask id="mask7_1686_292" style="mask-type:luminance" maskUnits="userSpaceOnUse" x="16" y="18" width="28" height="29">
<path d="M16.4077 18.9843H43.4636V46.0473H16.4077V18.9843Z" fill="white"/>
</mask>
<g mask="url(#mask7_1686_292)">
<mask id="mask8_1686_292" style="mask-type:luminance" maskUnits="userSpaceOnUse" x="16" y="18" width="28" height="29">
<path d="M29.9357 18.9843C22.4641 18.9843 16.4077 25.0408 16.4077 32.5123C16.4077 39.9838 22.4641 46.0473 29.9357 46.0473C37.4072 46.0473 43.4636 39.9838 43.4636 32.5123C43.4636 25.0408 37.4072 18.9843 29.9357 18.9843Z" fill="white"/>
</mask>
<g mask="url(#mask8_1686_292)">
<path d="M16.4077 18.9843H43.4636V46.0473H16.4077V18.9843Z" fill="black"/>
</g>
</g>
</g>
</g>
</g>
<mask id="mask9_1686_292" style="mask-type:luminance" maskUnits="userSpaceOnUse" x="20" y="23" width="19" height="19">
<path d="M20.9997 23.8802H38.1431V41.4411H20.9997V23.8802Z" fill="white"/>
</mask>
<g mask="url(#mask9_1686_292)">
<path d="M29.8791 41.0732C29.0654 41.0732 28.273 40.9529 27.4947 40.7194C26.7164 40.4788 25.9877 40.1392 25.3155 39.6864C24.6363 39.2336 24.042 38.6959 23.5255 38.0662C23.009 37.4365 22.5986 36.7501 22.2873 35.9931C21.976 35.2431 21.7779 34.4648 21.7 33.6582C21.6222 32.8446 21.6576 32.0451 21.8203 31.2456C21.976 30.4531 22.2448 29.6961 22.634 28.9744C23.016 28.2598 23.4901 27.6159 24.0703 27.0358C24.4523 26.6608 24.8698 26.3282 25.3155 26.0311C25.7613 25.741 26.2353 25.4934 26.7306 25.2882C27.2329 25.0901 27.7423 24.9415 28.2659 24.8353C28.7966 24.7363 29.3272 24.6868 29.8649 24.6868C30.4026 24.6938 30.9333 24.7434 31.4569 24.8495C31.9804 24.9556 32.4899 25.1184 32.9851 25.3235C33.4804 25.5287 33.9545 25.7834 34.4002 26.0806C34.8459 26.3778 35.2563 26.7174 35.6313 27.0924C36.0134 27.4744 36.353 27.8848 36.6501 28.3305C36.9473 28.7763 37.202 29.2503 37.4072 29.7456C37.6124 30.2409 37.7751 30.7503 37.8812 31.2739C37.9874 31.7974 38.044 32.3281 38.044 32.8658C38.044 33.4035 37.9944 33.9342 37.8954 34.4578C37.7963 34.9884 37.6407 35.4978 37.4426 35.9931C37.2445 36.4954 36.9968 36.9624 36.6997 37.4152C36.4025 37.861 36.07 38.2784 35.695 38.6605C34.096 40.2736 32.1573 41.0802 29.8791 41.0732ZM29.8791 26.2504C26.2424 26.2504 23.2778 29.2079 23.2778 32.8517C23.2778 36.4884 26.2424 39.4529 29.8791 39.4529C33.5229 39.4529 36.4874 36.4884 36.4874 32.8517C36.4874 29.2079 33.5229 26.2504 29.8791 26.2504Z" fill="white"/>
</g>
<mask id="mask10_1686_292" style="mask-type:luminance" maskUnits="userSpaceOnUse" x="36" y="23" width="3" height="4">
<path d="M36.0203 23.8802H38.7372V26.5971H36.0203V23.8802Z" fill="white"/>
</mask>
<g mask="url(#mask10_1686_292)">
<path d="M37.4425 23.8802C36.6571 23.8802 36.0203 24.517 36.0203 25.3023C36.0203 26.0877 36.6571 26.7245 37.4425 26.7245C38.2278 26.7245 38.8646 26.0877 38.8646 25.3023C38.8646 24.517 38.2278 23.8802 37.4425 23.8802Z" fill="white"/>
</g>
<path d="M74.0077 43.5001C75.0973 41.2006 76.9298 39.3681 79.4981 38.0096C82.0593 36.6512 84.8824 35.9719 87.9601 35.9719C92.9765 35.9719 97.0236 37.4295 100.101 40.3303C103.193 43.2383 104.743 47.0377 104.743 51.7357V85.4707H92.0355V55.2734C92.0355 49.5424 89.2903 46.6698 83.7999 46.6698C80.8353 46.6698 78.4297 47.6462 76.5831 49.5848C74.7506 51.5093 73.8379 54.1342 73.8379 57.4526V85.4707H61.1306V20.378H73.8379V43.5001H74.0077Z" fill="black"/>
<path d="M163.012 61.3582C163.012 66.5514 161.979 71.0513 159.927 74.8578C157.889 78.6714 154.988 81.6077 151.238 83.6595C147.481 85.7113 143.187 86.7443 138.361 86.7443C133.529 86.7443 129.234 85.7113 125.484 83.6595C121.749 81.6077 118.848 78.6714 116.796 74.8578C114.737 71.0513 113.711 66.5514 113.711 61.3582C113.711 56.172 114.744 51.665 116.824 47.8302C118.918 43.9812 121.834 41.052 125.569 39.0285C129.319 36.9908 133.586 35.972 138.361 35.972C143.187 35.972 147.481 37.005 151.238 39.0568C154.988 41.1157 157.889 44.052 159.927 47.8585C161.979 51.6721 163.012 56.172 163.012 61.3582ZM138.361 76.0465C142.225 76.0465 145.125 74.7658 147.05 72.1975C148.988 69.6363 149.965 66.0208 149.965 61.3582C149.965 56.7026 148.981 53.0871 147.022 50.5188C145.055 47.9575 142.14 46.6698 138.276 46.6698C134.597 46.6698 131.753 47.9434 129.758 50.4905C127.756 53.0235 126.758 56.646 126.758 61.3582C126.758 66.134 127.734 69.7778 129.701 72.2824C131.661 74.7941 134.548 76.0465 138.361 76.0465Z" fill="black"/>
<path d="M194.027 37.2456V46.302H186.131V73.2448C186.131 74.5112 186.477 75.3603 187.178 75.7919C187.871 76.2093 189.251 76.4145 191.31 76.4145C191.777 76.4145 192.682 76.3508 194.027 76.2164V85.8388C190.631 85.952 188.366 86.0086 187.234 86.0086C183.364 86.0086 180.428 85.5982 178.433 84.7916C176.43 83.9851 175.1 82.8389 174.442 81.3672C173.777 79.8814 173.452 77.9286 173.452 75.5089V46.302H166.914V37.2456H173.452V24.1988H186.131V37.2456H194.027Z" fill="black"/>
<path d="M248.578 61.3582C248.578 66.5514 247.545 71.0513 245.493 74.8578C243.455 78.6714 240.554 81.6077 236.804 83.6595C233.047 85.7113 228.753 86.7443 223.927 86.7443C219.095 86.7443 214.8 85.7113 211.05 83.6595C207.315 81.6077 204.414 78.6714 202.362 74.8578C200.303 71.0513 199.277 66.5514 199.277 61.3582C199.277 56.172 200.31 51.665 202.39 47.8302C204.484 43.9812 207.399 41.052 211.135 39.0285C214.885 36.9908 219.152 35.972 223.927 35.972C228.753 35.972 233.047 37.005 236.804 39.0568C240.554 41.1157 243.455 44.052 245.493 47.8585C247.545 51.6721 248.578 56.172 248.578 61.3582ZM223.927 76.0465C227.79 76.0465 230.691 74.7658 232.616 72.1975C234.554 69.6363 235.531 66.0208 235.531 61.3582C235.531 56.7026 234.547 53.0871 232.588 50.5188C230.621 47.9575 227.706 46.6698 223.842 46.6698C220.163 46.6698 217.319 47.9434 215.324 50.4905C213.322 53.0235 212.324 56.646 212.324 61.3582C212.324 66.134 213.3 69.7778 215.267 72.2824C217.227 74.7941 220.114 76.0465 223.927 76.0465Z" fill="black"/>
<path d="M302.591 61.586C302.591 66.6095 301.785 71.081 300.186 75.0008C298.601 78.9276 296.28 81.9912 293.224 84.1987C290.167 86.4061 286.523 87.5099 282.3 87.5099C275.96 87.5099 271.418 85.0335 268.687 80.0667H268.517V105H255.838V38.0111H267.979V45.0015H268.149C271.354 39.4969 276.158 36.7375 282.554 36.7375C286.417 36.7375 289.884 37.7564 292.941 39.7941C295.997 41.8176 298.36 44.7043 300.044 48.4542C301.742 52.19 302.591 56.5696 302.591 61.586ZM279.13 77.0667C282.448 77.0667 285.016 75.6729 286.828 72.8782C288.639 70.0693 289.545 66.5812 289.545 62.4067C289.545 57.8078 288.618 54.2135 286.771 51.624C284.939 49.0203 282.243 47.7184 278.677 47.7184C275.224 47.7184 272.571 49.0344 270.724 51.6523C268.892 54.2772 267.979 58.1262 267.979 63.1992C267.979 67.5575 268.97 70.9678 270.951 73.4159C272.946 75.8498 275.677 77.0667 279.13 77.0667Z" fill="black"/>
<path d="M320.004 101.783C318.049 101.783 316.186 101.629 314.416 101.32C312.646 101.032 311.092 100.631 309.754 100.116L313.459 88.0136C314.859 88.5076 316.135 88.8266 317.288 88.9707C318.461 89.1148 319.459 89.0325 320.282 88.7237C321.126 88.415 321.733 87.8284 322.104 86.9639L322.474 86.0994L305.802 36.5775H323.586L331.243 69.4275H331.737L339.517 36.5775H357.424L340.134 87.9519C339.27 90.5659 338.014 92.9123 336.368 94.9912C334.742 97.0906 332.601 98.7475 329.946 99.9619C327.291 101.176 323.977 101.783 320.004 101.783Z" fill="black"/>
<path d="M404.593 84.4804V86.3765H390.895C390.173 84.2681 389.791 82.3578 389.735 80.6597C387.428 83.1502 385.037 84.9473 382.546 86.0369C380.07 87.1124 377.268 87.6501 374.141 87.6501C369.726 87.6501 366.167 86.3836 363.471 83.8577C360.789 81.3106 359.452 77.8862 359.452 73.5844C359.452 69.5515 360.556 66.1907 362.763 63.5092C364.971 60.8135 368.912 58.9739 374.593 57.9904L383.65 56.632C385.949 56.2782 387.477 55.8325 388.235 55.3018C388.985 54.757 389.367 53.8443 389.367 52.5566C389.367 50.7453 388.716 49.3798 387.414 48.4529C386.112 47.5119 383.975 47.0379 381.018 47.0379C376.242 47.0379 373.645 49.2737 373.235 53.7453H360.981C361.469 48.2407 363.33 44.0521 366.556 41.1795C369.796 38.314 375.018 36.8777 382.206 36.8777C388.376 36.8777 393.173 38.0876 396.612 40.5003C400.064 42.9201 401.791 46.2454 401.791 50.4906V77.4051C401.791 79.6338 402.017 81.2823 402.47 82.3578C402.923 83.4191 403.63 84.1266 404.593 84.4804ZM389.367 68.8864V62.8865C388.27 63.5658 387.088 64.1035 385.829 64.4997C384.562 64.8818 382.723 65.2568 380.31 65.6318C377.572 65.9926 375.527 66.7284 374.169 67.8393C372.81 68.9571 372.131 70.6057 372.131 72.792C372.131 74.5325 372.676 75.9334 373.773 77.0088C374.862 78.0701 376.291 78.5937 378.046 78.5937C379.914 78.5937 381.725 78.1904 383.48 77.3768C385.235 76.5489 386.65 75.3957 387.725 73.924C388.815 72.4382 389.367 70.7543 389.367 68.8864Z" fill="black"/>
</svg>
